<svg xmlns="http://www.w3.org/2000/svg" viewBox="0 0 600 600"><defs><style>.cls-1{opacity:0.5;}.cls-2{fill:none;}.cls-3{fill:#edb2b2;}.cls-4{fill:#74150f;}.cls-5{fill:#00508f;}.cls-6{fill:#e2f9ff;}.cls-7{fill:#062472;}.cls-8{fill:#a8744a;}.cls-9{fill:#fff;}.cls-10{fill:#ffc7c3;}.cls-11{fill:#eff4fc;}.cls-12{fill:#ffeceb;}.cls-13{fill:#a88cdc;}.cls-14{fill:#c397dc;}.cls-15{fill:#bbc4ee;}.cls-16{fill:#173196;}.cls-17{fill:#fdfbe8;}.cls-18{fill:#f1f4ff;}.cls-19{fill:#9eebff;}.cls-20{fill:#007c80;}.cls-21{fill:#153947;}</style></defs><g id="Layer_1" data-name="Layer 1"><g class="cls-1"><path class="cls-2" d="M82.07,417.84l414.79,44.68,2.67-2.37L83.07,417.33Z"/><path class="cls-2" d="M507.05,453.49l1.74-1.54L160.62,417.87Z"/><path class="cls-2" d="M56,431.25l420.52,49.32,4.5-4-421-47.38Z"/><path class="cls-2" d="M42.91,438l423.38,51.64,5.4-4.78L48.35,435.15Z"/><path class="cls-2" d="M3.78,458l431.94,58.63,8.06-7.14L13.46,453.06Z"/><path class="cls-2" d="M16.82,451.34l429.09,56.31,7.18-6.37-428-54.19Z"/><path class="cls-2" d="M29.86,444.64l426.24,54,6.3-5.58L36.74,441.12Z"/><path class="cls-2" d="M69,424.54l417.65,47,3.59-3.18L71.52,423.26Z"/><path class="cls-3" d="M588.59,381.27l10.19-9L212.9,350.67l-13.11,6.73Z"/><path class="cls-3" d="M578.39,390.3l4.14-3.66L221.65,366.46Z"/><path class="cls-3" d="M197.9,358.38l-11.21,5.75,10.91.73Z"/><path class="cls-3" d="M197.9,358.38l-.3,6.48,24.05,1.6,360.88,20.18,6.06-5.37L199.79,357.4Z"/><path class="cls-3" d="M185,365l-11.41,5.86,394.6,28.48,5.15-4.56L184.71,370.91Z"/><path class="cls-3" d="M197.59,365.12v-.26l-10.91-.73L185,365l-.3,5.92,388.64,23.86,5-4.47L221.65,366.46Z"/><path class="cls-3" d="M172.11,371.61l-11.6,6L558,408.36l6.15-5.45L171.84,376.69Z"/><path class="cls-3" d="M172.11,371.61l-.27,5.08,392.32,26.22,4-3.58L173.6,370.85Z"/><path class="cls-3" d="M159.21,378.24l-11.79,6.05,400.4,33.09,7.14-6.32L159,382.48Z"/><path class="cls-3" d="M159.21,378.24l-.25,4.24,396,28.58,3-2.7-397.5-30.79Z"/><path class="cls-3" d="M146.31,384.86l-12,6.14,403.28,35.41,8.12-7.19-399.65-31Z"/><path class="cls-3" d="M146.31,384.86l-.21,3.4,399.65,31,2.07-1.84-400.4-33.09Z"/><path class="cls-3" d="M133.41,391.48l-12.14,6.24,406.16,37.72,9.09-8.05L133.23,394.05Z"/><path class="cls-3" d="M133.41,391.48l-.18,2.57,403.29,33.34,1.11-1L134.35,391Z"/><path class="cls-3" d="M120.38,399.84l.12-1.73-12.3,6.32L360,429.07l158,14.68,9.24-8.19Z"/><path class="cls-3" d="M120.5,398.11l-.12,1.73,406.91,35.72.14-.12L121.27,397.72Z"/><path class="cls-3" d="M107.52,405.62l.07-.88-12.45,6.39,65.48,6.74L508.79,452l8.45-7.49L360,429.07Z"/><path class="cls-3" d="M107.52,405.62,360,429.07,108.2,404.43l-.61.31Z"/><path class="cls-3" d="M94.67,411.41v0l-11.6,6,416.46,42.82,7.52-6.66L160.62,417.87Z"/><path class="cls-3" d="M71.52,423.26l418.74,45.1,6.6-5.84L82.07,417.84Z"/><path class="cls-3" d="M59.94,429.2l421,47.38,5.69-5L69,424.54Z"/><path class="cls-3" d="M48.35,435.15l423.34,49.66,4.79-4.24L56,431.25Z"/><path class="cls-3" d="M36.74,441.12,462.4,493l3.89-3.45L42.91,438Z"/><path class="cls-3" d="M25.11,447.09l428,54.19,3-2.66-426.24-54Z"/><path class="cls-3" d="M13.46,453.06l430.32,56.47,2.13-1.88L16.82,451.34Z"/><path class="cls-3" d="M1.8,459.05l432.66,58.73,1.26-1.11L3.78,458Z"/><rect class="cls-3" x="196.43" y="363.56" width="29.61" height="9.28"/></g><polygon class="cls-4" points="398.86 342.49 321.98 342.49 321.98 327.9 398.86 322.04 398.86 342.49"/><polygon class="cls-4" points="529.76 309.88 518.67 309.88 518.67 244.77 529.76 251.55 529.76 309.88"/><rect class="cls-4" x="481.13" y="244.77" width="37.54" height="69.91"/><polygon class="cls-4" points="523.77 292.09 461.93 298.52 461.93 382.49 523.77 382.49 529.83 382.49 529.83 300.11 523.77 292.09"/><polygon class="cls-4" points="523.77 292.09 523.77 382.49 529.83 382.49 529.83 300.11 523.77 292.09"/><polygon class="cls-4" points="377.96 291.51 377.96 380.89 467.31 380.89 467.31 272.89 456.25 267.91 377.96 291.51"/><polygon class="cls-4" points="456.25 267.91 456.25 380.89 467.31 380.89 467.31 272.89 456.25 267.91"/><polygon class="cls-5" points="406.62 267.64 406.62 352.43 375.43 336.63 375.43 174.15 406.62 267.64"/><polygon class="cls-6" points="406.62 278.31 406.62 293.42 377.83 228.95 377.83 201.07 406.62 278.31"/><polygon class="cls-6" points="406.62 297.21 406.62 312.32 377.83 264 377.83 236.12 406.62 297.21"/><polygon class="cls-6" points="406.62 316.32 406.62 331.42 377.83 299.26 377.83 271.38 406.62 316.32"/><polygon class="cls-6" points="406.62 335.42 406.62 350.53 377.83 334.52 377.83 306.64 406.62 335.42"/><rect class="cls-7" x="284.35" y="174.16" width="91.08" height="163.66"/><polygon class="cls-8" points="282.8 174.15 284.35 176.08 284.35 190.1 282.8 188.31 282.8 174.15"/><rect class="cls-6" x="292.1" y="304.44" width="75.57" height="28.95"/><path class="cls-9" d="M292.1,304.44V320.8c17.84-16.39,46.63-6,68.91-8.24a48.62,48.62,0,0,0,6.66-1v-7.09Z"/><rect class="cls-6" x="292.1" y="267.83" width="75.57" height="28.95"/><path class="cls-9" d="M292.1,296.78h75.57V267.83H337.2c-14.18,7-29.21,11.82-45.1,13.09Z"/><rect class="cls-10" x="292.1" y="231.22" width="75.57" height="28.95"/><path class="cls-11" d="M367.67,260.17V248.73c-5.42,4.08-11,7.92-16.7,11.44Z"/><path class="cls-12" d="M292.1,248.06A78.4,78.4,0,0,0,323,232.54l1.54-1.32H292.1Z"/><rect class="cls-6" x="292.1" y="194.61" width="75.57" height="65.21"/><path class="cls-7" d="M375.63,174.15l31,92.47V274q-15.56-42.76-31.12-85.55Z"/><path class="cls-7" d="M329.4,194.72v65.36c0,.28,1,.28,1,0V194.72c0-.28-1-.28-1,0Z"/><path class="cls-7" d="M329.4,267.81v28.95c0,.12,1,.12,1,0V267.81c0-.12-1-.12-1,0Z"/><path class="cls-7" d="M329.4,304.44v28.93c0,.13,1,.13,1,0V304.44c0-.12-1-.12-1,0Z"/><rect class="cls-7" x="292.1" y="215.82" width="75.57" height="0.92"/><rect class="cls-7" x="292.1" y="289.62" width="75.57" height="0.92"/><rect class="cls-7" x="292.1" y="323.76" width="75.57" height="0.92"/><rect class="cls-13" x="78.58" y="427.67" width="115.16" height="3"/><polygon class="cls-13" points="193.74 430.68 235.32 421.89 235.32 419.32 193.74 427.67 193.74 430.68"/><rect class="cls-14" x="194.67" y="228.53" width="40.82" height="193.94"/><polygon class="cls-4" points="284.35 262.44 284.35 410.1 235.49 422.48 235.49 228.53 284.35 262.44"/><rect class="cls-15" x="194.67" y="370.94" width="40.82" height="51.54"/><rect class="cls-16" x="194.67" y="402.88" width="40.82" height="19.6"/><polygon class="cls-7" points="284.35 370.84 284.35 410.1 235.49 422.48 235.49 370.94 284.35 370.84"/><rect class="cls-17" x="210.2" y="236.39" width="9.76" height="32.58"/><rect class="cls-17" x="210.2" y="284.88" width="9.76" height="32.58"/><rect class="cls-17" x="210.2" y="333.38" width="9.76" height="32.58"/><rect class="cls-15" x="194.67" y="322.88" width="40.82" height="4.46"/><rect class="cls-15" x="194.67" y="274.83" width="40.82" height="4.46"/><rect class="cls-15" x="194.67" y="226.77" width="40.82" height="3.99"/><polygon class="cls-6" points="280.53 265.83 280.53 295.83 241.01 277.4 241.01 240 280.53 265.83"/><polygon class="cls-6" points="280.53 303.68 280.53 333.34 241.01 324.16 241.01 287.19 280.53 303.68"/><polygon class="cls-6" points="280.53 341.52 280.53 370.84 241.01 370.93 241.01 334.38 280.53 341.52"/><polygon class="cls-4" points="284.35 297.61 284.35 301.01 235.49 279.29 235.49 274.83 284.35 297.61"/><polygon class="cls-4" points="284.35 334.22 284.35 337.62 235.49 327.35 235.49 322.88 284.35 334.22"/><polygon class="cls-4" points="284.35 260.68 284.35 264.14 235.49 230.76 235.49 226.77 284.35 260.68"/><polygon class="cls-4" points="249.9 335.98 249.9 370.91 248.92 370.91 248.92 335.81 249.9 335.98"/><polygon class="cls-4" points="257.75 337.41 257.75 370.89 256.77 370.89 256.77 337.23 257.75 337.41"/><polygon class="cls-4" points="265.61 338.83 265.61 370.87 264.64 370.88 264.64 338.65 265.61 338.83"/><polygon class="cls-4" points="273.47 340.25 273.47 370.86 272.49 370.86 272.49 340.07 273.47 340.25"/><polygon class="cls-4" points="249.9 245.81 249.9 281.55 248.92 281.09 248.92 245.17 249.9 245.81"/><polygon class="cls-4" points="257.75 250.94 257.75 285.21 256.77 284.76 256.77 250.31 257.75 250.94"/><polygon class="cls-4" points="265.61 256.08 265.61 288.88 264.64 288.42 264.64 255.44 265.61 256.08"/><polygon class="cls-4" points="273.47 261.22 273.47 292.54 272.49 292.09 272.49 260.58 273.47 261.22"/><polygon class="cls-4" points="249.9 290.9 249.9 326.23 248.92 326 248.92 290.49 249.9 290.9"/><polygon class="cls-4" points="257.75 294.18 257.75 328.05 256.77 327.82 256.77 293.77 257.75 294.18"/><polygon class="cls-4" points="265.61 297.45 265.61 329.87 264.64 329.65 264.64 297.05 265.61 297.45"/><polygon class="cls-4" points="273.47 300.73 273.47 331.7 272.49 331.47 272.49 300.32 273.47 300.73"/><rect class="cls-7" x="78.58" y="116.98" width="115.15" height="314.53"/><rect class="cls-5" x="114.01" y="146.18" width="79.72" height="225.07"/><polygon class="cls-5" points="236.03 153.32 236.03 419.75 193.73 428.45 193.73 116.98 236.03 153.32"/><polygon class="cls-7" points="236.08 178.65 236.08 371.18 193.73 371.25 193.73 146.18 236.08 178.65"/><rect class="cls-6" x="114.01" y="151.76" width="79.72" height="50.96"/><path class="cls-18" d="M160.33,151.76C142,163,126.67,177.84,114,194.7v8h37.82c13.64-14.51,26.94-29,41.9-42.55v-8.41Z"/><rect class="cls-6" x="114.01" y="207.94" width="79.72" height="50.96"/><path class="cls-18" d="M193.73,258.9V237c-8.29,7.39-16.67,14.72-25.36,21.94Z"/><path class="cls-18" d="M114,240.6c4.41-4,8.7-8.12,12.94-12.35,6.92-6.71,13.5-13.5,20-20.31H114Z"/><rect class="cls-18" x="114.01" y="264.11" width="79.72" height="50.96"/><path class="cls-6" d="M114,297.69v17.38h79.72v-51H162c-10.26,8.29-21,16.39-32.61,24.15A145.38,145.38,0,0,1,114,297.69Z"/><rect class="cls-6" x="114.01" y="320.29" width="79.72" height="50.96"/><path class="cls-18" d="M114,320.29v38.88c24.25-13.78,52.4-21.59,79.72-30v-8.86Z"/><polygon class="cls-6" points="235.32 183.42 235.32 227.02 193.73 202.72 193.73 151.76 235.32 183.42"/><polygon class="cls-6" points="235.32 231.48 235.32 275.07 193.73 258.9 193.73 207.94 235.32 231.48"/><polygon class="cls-6" points="235.32 279.53 235.32 323.12 193.73 315.07 193.73 264.11 235.32 279.53"/><polygon class="cls-6" points="235.32 327.59 235.32 371.18 193.73 371.25 193.73 320.29 235.32 327.59"/><path class="cls-5" d="M114,148.81v224a.49.49,0,0,0,1,0v-224a.49.49,0,0,0-1,0Z"/><path class="cls-7" d="M192.75,151.31v224a.49.49,0,0,0,1,0v-224a.49.49,0,0,0-1,0Z"/><polygon class="cls-7" points="205.38 155.28 205.38 371.23 204.4 371.23 204.4 154.51 205.38 155.28"/><polygon class="cls-7" points="215.25 162.98 215.25 371.21 214.27 371.22 214.27 162.22 215.25 162.98"/><polygon class="cls-7" points="225.6 171.06 225.6 371.2 224.62 371.2 224.62 170.3 225.6 171.06"/><rect class="cls-7" x="78.58" y="371.25" width="115.16" height="60.25"/><path class="cls-7" d="M236.46,370.9l-42.72.35v60l42.82-9Q236.52,396.57,236.46,370.9Z"/><rect class="cls-6" x="105.63" y="379.11" width="88.16" height="49.39"/><rect class="cls-7" x="78.58" y="378.5" width="9.32" height="50"/><rect class="cls-7" x="104.84" y="378.5" width="9.32" height="50"/><rect class="cls-7" x="184.9" y="378.5" width="9.32" height="50"/><rect class="cls-5" x="114.01" y="379.11" width="3.33" height="49.39"/><path class="cls-5" d="M192.53,352.38H114v-1h78.52A.49.49,0,0,1,192.53,352.38Z"/><path class="cls-5" d="M192.52,295.82H114v-1h78.51A.49.49,0,0,1,192.52,295.82Z"/><path class="cls-5" d="M192.52,182.73H114v-1h78.51A.49.49,0,0,1,192.52,182.73Z"/><path class="cls-5" d="M193,239.28H114v-1h79A.49.49,0,0,1,193,239.28Z"/><rect class="cls-7" x="284.35" y="336.64" width="246.07" height="72.63"/><rect class="cls-5" x="284.35" y="344.39" width="245.87" height="0.98"/><path class="cls-19" d="M304.81,370h49.46a2.83,2.83,0,0,1,2.83,2.83v36.43a0,0,0,0,1,0,0H302a0,0,0,0,1,0,0V372.84A2.83,2.83,0,0,1,304.81,370Z"/><path class="cls-19" d="M371.67,370h49.46a2.83,2.83,0,0,1,2.83,2.83v36.43a0,0,0,0,1,0,0H368.83a0,0,0,0,1,0,0V372.84A2.83,2.83,0,0,1,371.67,370Z"/><path class="cls-19" d="M438.53,370H488a2.83,2.83,0,0,1,2.83,2.83v36.43a0,0,0,0,1,0,0H435.69a0,0,0,0,1,0,0V372.84A2.83,2.83,0,0,1,438.53,370Z"/><rect class="cls-5" x="301.97" y="390.14" width="55.13" height="0.5"/><rect class="cls-5" x="301.97" y="392.34" width="55.13" height="0.5"/><rect class="cls-5" x="301.97" y="394.55" width="55.13" height="0.5"/><rect class="cls-5" x="301.97" y="396.75" width="55.13" height="0.5"/><rect class="cls-5" x="301.97" y="398.95" width="55.13" height="0.5"/><rect class="cls-5" x="301.97" y="401.15" width="55.13" height="0.5"/><rect class="cls-5" x="301.97" y="403.35" width="55.13" height="0.5"/><rect class="cls-5" x="301.97" y="405.55" width="55.13" height="0.5"/><rect class="cls-5" x="301.97" y="407.75" width="55.13" height="1.53"/><rect class="cls-5" x="368.83" y="390.14" width="55.12" height="0.5"/><rect class="cls-5" x="368.83" y="392.34" width="55.12" height="0.5"/><rect class="cls-5" x="368.83" y="394.55" width="55.12" height="0.5"/><rect class="cls-5" x="368.83" y="396.75" width="55.12" height="0.5"/><rect class="cls-5" x="368.83" y="398.95" width="55.12" height="0.5"/><rect class="cls-5" x="368.83" y="401.15" width="55.12" height="0.5"/><rect class="cls-5" x="368.83" y="403.35" width="55.12" height="0.5"/><rect class="cls-5" x="368.83" y="405.55" width="55.12" height="0.5"/><rect class="cls-5" x="368.83" y="407.75" width="55.12" height="1.55"/><rect class="cls-5" x="435.69" y="390.14" width="55.12" height="0.5"/><rect class="cls-5" x="435.69" y="392.34" width="55.12" height="0.5"/><rect class="cls-5" x="435.69" y="394.55" width="55.12" height="0.5"/><rect class="cls-5" x="435.69" y="396.75" width="55.12" height="0.5"/><rect class="cls-5" x="435.69" y="398.95" width="55.12" height="0.5"/><rect class="cls-5" x="435.69" y="401.15" width="55.12" height="0.5"/><rect class="cls-5" x="435.69" y="403.35" width="55.12" height="0.5"/><rect class="cls-5" x="435.69" y="405.55" width="55.12" height="0.5"/><rect class="cls-5" x="435.69" y="407.75" width="55.12" height="1.53"/><rect class="cls-5" x="284.35" y="336.63" width="246.37" height="5.37"/><path class="cls-5" d="M304.81,366.48H354.3a2.83,2.83,0,0,1,2.83,2.83v2.53a0,0,0,0,1,0,0H302a0,0,0,0,1,0,0v-2.53A2.83,2.83,0,0,1,304.81,366.48Z"/><path class="cls-5" d="M371.7,366.48h49.49a2.83,2.83,0,0,1,2.83,2.83v2.53a0,0,0,0,1,0,0H368.87a0,0,0,0,1,0,0v-2.53A2.83,2.83,0,0,1,371.7,366.48Z"/><path class="cls-5" d="M438.6,366.48h49.49a2.83,2.83,0,0,1,2.83,2.83v21.54a0,0,0,0,1,0,0H435.77a0,0,0,0,1,0,0V369.31A2.83,2.83,0,0,1,438.6,366.48Z"/><path class="cls-20" d="M123.59,425.8c0,7.92-3.62,10.37-12.64,10.37S98.3,433.72,98.3,425.8s7.15-18.32,12.65-18.32C115.91,407.48,123.59,417.88,123.59,425.8Z"/><path class="cls-21" d="M123.59,425.8c0,7.92-3.63,10.37-12.64,10.37-4.52,0-7.66-.61-9.69-2.18a28.38,28.38,0,0,0,5.38.42c9,0,12.66-2.44,12.66-10.36,0-5.94-4.31-13.26-8.57-16.56H111C115.91,407.48,123.59,417.88,123.59,425.8Z"/><path class="cls-20" d="M207.44,425.8c0,7.92-3.63,10.37-12.65,10.37s-12.64-2.45-12.64-10.37,7.14-18.32,12.64-18.32C199.75,407.48,207.44,417.88,207.44,425.8Z"/><path class="cls-21" d="M207.44,425.8c0,7.92-3.64,10.37-12.65,10.37-4.51,0-7.66-.61-9.68-2.18a28.24,28.24,0,0,0,5.38.42c9,0,12.65-2.44,12.65-10.36,0-5.94-4.31-13.26-8.57-16.56h.22C199.75,407.48,207.44,417.88,207.44,425.8Z"/><path class="cls-20" d="M250.34,407.43c0,12.7-1.44,16.63-5,16.63s-5-3.93-5-16.63,2.83-29.4,5-29.4C247.29,378,250.34,394.72,250.34,407.43Z"/><path class="cls-21" d="M250.34,407.43c0,12.7-1.44,16.63-5,16.63-1.8,0-3.05-1-3.85-3.49a3.35,3.35,0,0,0,2.14.67c3.58,0,5-3.92,5-16.63,0-9.52-1.71-21.27-3.4-26.56a.15.15,0,0,1,.09,0C247.29,378,250.34,394.72,250.34,407.43Z"/><path class="cls-20" d="M270.47,403.92c0,12.71-1.44,16.64-5,16.64s-5-3.93-5-16.64,2.84-29.39,5-29.39C267.42,374.53,270.47,391.21,270.47,403.92Z"/><path class="cls-21" d="M270.47,403.92c0,12.71-1.44,16.64-5,16.64-1.79,0-3-1-3.84-3.49a3.33,3.33,0,0,0,2.13.67c3.58,0,5-3.93,5-16.63,0-9.52-1.71-21.27-3.4-26.57h.09C267.42,374.53,270.47,391.21,270.47,403.92Z"/><path class="cls-20" d="M287.18,399.51c0,12.71-1.44,16.63-5,16.63s-5-3.92-5-16.63,2.84-29.4,5-29.4C284.13,370.11,287.18,386.8,287.18,399.51Z"/><path class="cls-21" d="M287.18,399.51c0,12.7-1.44,16.63-5,16.63-1.79,0-3-1-3.84-3.49a3.33,3.33,0,0,0,2.13.68c3.58,0,5-3.93,5-16.64,0-9.52-1.71-21.27-3.39-26.56a.12.12,0,0,1,.08,0C284.13,370.11,287.18,386.8,287.18,399.51Z"/><path class="cls-20" d="M408.12,427.49a7.47,7.47,0,0,0-7.33-6.06c-3,0-9.86,1.8-13.3,4.38a40.33,40.33,0,0,0-37.31-1.68,20.65,20.65,0,0,0-17.75-10.08,41.26,41.26,0,0,0-24.9,8.78,14.33,14.33,0,0,0-1.87-.12c-8.65,0-20,7-20,15.66,0,.11,0,.23,0,.34H410.25a10.38,10.38,0,0,0,2.55-6A5.24,5.24,0,0,0,408.12,427.49Z"/><rect class="cls-5" x="282.79" y="174.16" width="92.63" height="14.16"/></g></svg>